<?xml version="1.0" encoding="UTF-8"?><svg id="Layer_1" xmlns="http://www.w3.org/2000/svg" viewBox="0 0 159.47 32.78"><path d="M29.14,23.16h14l.41-3.45h-9.86l1.01-6.44h7.82l.51-3.45h-7.79l.07-.44c.08-.47,.77-4.87,.82-5.23l.05-.32h9.54l.54-3.45h-13.6l-3.53,22.78Z"/><path d="M59,23.16h4.05l3-19.33h6.82l.54-3.45h-17.69l-.51,3.45h6.82l-3.03,19.33Z"/><path d="M71.96,29.48l1.59,3.3c1.31-.22,3.7-.72,6.17-2.96,2.35-2.13,3.59-4.59,4.28-8.51,.15-.87,.42-2.51,.74-4.51l.12-.78c.91-5.7,2.16-13.71,2.46-15.65h-4.14c-.26,1.75-1.52,10.2-2.36,15.77l-.12,.77c-.18,1.2-.34,2.22-.46,2.96-1.12,7.08-4.13,8.26-8.29,9.6Z"/><path d="M93.86,23.16h14l.41-3.45h-9.86l1.01-6.44h7.83l.5-3.45h-7.78l.94-6h9.54l.54-3.45h-13.59l-3.54,22.78Z"/><path d="M123.3,23.16h4.06l3-19.33h6.81l.54-3.45h-17.69l-.5,3.45h6.82l-3.04,19.33Z"/><path d="M141.51,22.04c2,.71,4.85,1.57,7.64,1.57,5.17,0,8.5-2.82,8.5-7.19,0-2.9-2.62-4.69-3.74-5.32l-.11-.06c-2.1-1.18-4.97-2.8-4.97-4.51,0-1.61,1.8-2.97,3.94-2.97,1.97,0,3.99,.76,5.46,1.41l1.25-3.84c-2.27-.74-4.66-1.13-6.95-1.13-4.83,0-8.47,2.97-8.47,6.91,0,1.88,1.44,3.68,4.4,5.51,2.87,1.76,3.88,2.43,4.47,3.48,.03,.06,.14,.28,.17,.47,.04,.16,.05,.48,.05,.48-.08,1.7-1.98,3.21-3.98,3.21-2.1,0-4.27-.88-6.16-1.79l-1.51,3.76Z"/><path d="M14.84,23.16h4.44L22.81,.38h-3.87l-2.46,17.83L8.28,.38H3.54L0,23.16H3.91L6.37,5.38,14.84,23.16Z"/></svg>